<?xml version="1.0" encoding="UTF-8"?>
<svg id="Layer_2" data-name="Layer 2" xmlns="http://www.w3.org/2000/svg" viewBox="0 0 387.85 87.44">
  <defs>
    <style>
      .cls-1 {
        fill: #212121;
      }

      .cls-2 {
        fill: #cea665;
      }

      .cls-3 {
        fill: none;
        stroke: #cea665;
        stroke-linecap: round;
        stroke-linejoin: round;
        stroke-width: 1.69px;
      }
    </style>
  </defs>
  <g id="Layer_1-2" data-name="Layer 1">
    <g>
      <g>
        <g>
          <path class="cls-3" d="M9.6,.84c-1.9,13.34,.1,27.05,5.88,39.38,2.52,5.38,5.85,10.24,9.44,14.83,.08,.1,.17,.2,.24,.3l-8.78,3c-3.9-5.25-7.16-11.02-9.68-17.18C1.44,28.26-.26,14.36,1.54,.84"/>
          <polyline class="cls-3" points="55.76 86.59 68.01 82.43 80.25 86.59"/>
        </g>
        <g>
          <path class="cls-3" d="M134.47,.84c1.81,13.51,.1,27.41-5.16,40.33-2.52,6.16-5.77,11.93-9.67,17.18l-8.78-3c.08-.1,.17-.2,.24-.3,3.59-4.6,6.92-9.45,9.44-14.83,5.78-12.33,7.78-26.03,5.88-39.38"/>
          <path class="cls-3" d="M79.82,78.11h0l11.55,3.93c-3.14,1.57-6.4,2.93-9.77,4.08l-1.35,.46-12.24-4.16"/>
          <path class="cls-3" d="M126.42,.84c1.9,13.34-.1,27.05-5.88,39.38-2.52,5.38-5.85,10.24-9.44,14.83-.08,.1-.17,.2-.24,.3l-8.77-2.98s.03-.04,.06-.06c3.49-4.11,7.02-8.24,9.63-13.04,6.37-11.7,8.69-25.25,6.63-38.42"/>
          <path class="cls-3" d="M118.4,.84c2.06,13.18-.27,26.73-6.63,38.42-2.61,4.81-6.14,8.93-9.63,13.04-.02,.01-.03,.03-.06,.06l-8.73-2.97c3.36-3.58,7-6.91,9.64-11.08,7.04-11,9.73-24.45,7.41-37.47"/>
          <path class="cls-3" d="M110.4,.84c2.32,13.02-.36,26.48-7.41,37.47-2.64,4.17-6.28,7.5-9.64,11.08l-8.71-2.96c3.25-3.04,6.92-5.55,9.58-9.05,7.8-10.23,10.89-23.65,8.15-36.53"/>
          <path class="cls-3" d="M102.37,.84c2.74,12.89-.34,26.31-8.15,36.53-2.66,3.5-6.33,6.01-9.58,9.05l-8.39-2.86c3.49-1.89,6.58-4.31,9.2-7.14,8.71-9.34,12.24-22.84,8.85-35.58"/>
          <path class="cls-3" d="M49.94,.84c-5.55,15.81,2.27,33.51,18.06,39.86-.54,.22-1.09,.43-1.66,.62l-6.59,2.24c-3.49-1.89-6.58-4.31-9.2-7.14C41.85,27.09,38.33,13.59,41.71,.84"/>
          <path class="cls-3" d="M119.63,58.35c-1.67,2.27-3.46,4.43-5.37,6.5"/>
          <path class="cls-3" d="M76.77,51.5c3.37,1.35,6.68,2.62,9.29,3.6,2.54,.96,4.41,1.64,5.01,1.85l4.45,1.51,9.44,3.22,9.31,3.16c-1.99,2.18-4.12,4.24-6.36,6.17l-10.07-3.43-10.32-3.51-3.79-1.29c-1.24-.43-3.52-1.35-6.29-2.57-2.8-1.22-6.12-2.73-9.44-4.31"/>
          <path class="cls-3" d="M77.44,60.22c2.78,1.22,5.05,2.14,6.29,2.57l3.79,1.29,10.32,3.51,10.07,3.43c-2.38,2.08-4.89,4-7.52,5.77l-10.84-3.69-11.08-3.77-2.06-.7c-2.08-.71-5.05-1.97-8.4-3.56"/>
          <path class="cls-3" d="M78.46,69.32l11.08,3.77,10.84,3.69c-2.87,1.95-5.88,3.71-9.01,5.26h0l-11.55-3.93h0l-10.74-3.66c-.34-.11-.7-.24-1.06-.38"/>
          <path class="cls-3" d="M68.01,82.43l-12.25,4.16-1.35-.46c-3.37-1.15-6.63-2.51-9.77-4.08l11.55-3.93,10.75-3.66c.34-.11,.7-.24,1.07-.38,.36,.14,.72,.26,1.06,.38l10.74,3.66"/>
          <path class="cls-3" d="M68.01,74.08c-.37,.14-.72,.26-1.07,.38l-10.75,3.66-11.55,3.93c-3.13-1.56-6.14-3.32-9.02-5.27l10.84-3.69,11.09-3.77,2.06-.7c2.08-.71,5.06-1.97,8.4-3.56,3.35,1.59,6.31,2.85,8.4,3.56l2.06,.7"/>
          <path class="cls-3" d="M68,65.06c-3.34,1.59-6.31,2.85-8.4,3.56l-2.06,.7-11.09,3.77-10.84,3.69c-2.62-1.77-5.12-3.69-7.51-5.77l10.07-3.43,10.32-3.51,3.79-1.29c1.24-.43,3.52-1.35,6.29-2.56,2.8-1.22,6.11-2.74,9.43-4.32,3.32,1.58,6.64,3.1,9.44,4.31"/>
          <path class="cls-3" d="M68,55.9c-3.32,1.58-6.63,3.1-9.43,4.32-2.78,1.21-5.05,2.14-6.29,2.56l-3.79,1.29-10.32,3.51-10.07,3.43h0c-2.23-1.93-4.35-3.99-6.35-6.17l9.3-3.17h0l9.43-3.21,4.45-1.51c.6-.21,2.47-.89,5.01-1.85,2.61-.99,5.92-2.26,9.29-3.6,3.04-1.2,6.12-2.47,8.76-3.62,2.64,1.15,5.73,2.41,8.76,3.62"/>
          <path class="cls-3" d="M41.71,.84c-3.38,12.75,.14,26.24,8.85,35.58,2.62,2.83,5.7,5.25,9.2,7.14l-8.4,2.86c-3.25-3.04-6.91-5.55-9.56-9.05C33.98,27.15,30.89,13.73,33.64,.84"/>
          <path class="cls-3" d="M33.64,.84c-2.75,12.89,.34,26.31,8.16,36.53,2.65,3.5,6.31,6.01,9.56,9.05l-8.7,2.96c-3.36-3.58-7-6.91-9.64-11.08C25.98,27.32,23.29,13.88,25.62,.84"/>
          <path class="cls-3" d="M25.62,.84c-2.33,13.03,.35,26.48,7.4,37.47,2.64,4.17,6.28,7.5,9.64,11.08l-8.73,2.97s-.03-.04-.06-.06c-3.49-4.11-7.02-8.24-9.63-13.04C17.88,27.57,15.55,14.02,17.61,.84"/>
          <path class="cls-3" d="M17.61,.84c-2.06,13.18,.27,26.73,6.63,38.42,2.61,4.81,6.14,8.93,9.63,13.04,.02,.01,.03,.03,.06,.06l-8.77,2.98c-.08-.1-.17-.2-.24-.3-3.59-4.6-6.92-9.45-9.44-14.83C9.7,27.89,7.69,14.19,9.6,.84"/>
          <path class="cls-3" d="M21.76,64.85h-.01c-1.9-2.07-3.69-4.23-5.36-6.5l8.78-3,8.77-2.98,8.73-2.97,8.7-2.96,8.4-2.86"/>
          <path class="cls-3" d="M94.31,.84c3.38,12.75-.14,26.24-8.85,35.58-2.62,2.83-5.7,5.25-9.2,7.14l-6.59-2.24c-.56-.19-1.12-.4-1.66-.62,15.8-6.37,23.61-24.07,18.05-39.86"/>
        </g>
      </g>
      <g>
        <g>
          <path class="cls-2" d="M167.16,63.77c-2.09-.8-4.06-1.21-5.91-1.21s-3.29,.39-4.33,1.17c-1.03,.78-1.55,1.86-1.55,3.24,0,1.68,.87,2.98,2.62,3.9,.78,.39,1.64,.75,2.57,1.09s1.87,.71,2.81,1.12c.94,.41,1.8,.88,2.59,1.41,.78,.53,1.41,1.26,1.9,2.19,.48,.93,.72,2.12,.72,3.55s-.4,2.66-1.21,3.67c-.8,1.01-1.78,1.7-2.91,2.05-1.14,.36-2.46,.53-3.98,.53-2.83,0-5.24-.7-7.24-2.1l.17-.28c.76,.6,1.74,1.09,2.95,1.47,1.21,.38,2.44,.57,3.71,.57,1.86,0,3.45-.43,4.77-1.29,1.32-.86,1.98-2.13,1.98-3.81,0-1.84-.87-3.28-2.62-4.31-.78-.46-1.64-.88-2.57-1.28-.93-.39-1.87-.8-2.81-1.22-.94-.42-1.81-.9-2.59-1.43-1.75-1.15-2.62-2.78-2.62-4.89,0-1.68,.56-3.04,1.69-4.09,1.13-1.05,2.82-1.57,5.08-1.57s4.57,.39,6.91,1.17l-.14,.34Z"/>
          <path class="cls-2" d="M178.4,74.97c0-4.18,1.02-7.36,3.05-9.53,2.03-2.17,4.65-3.26,7.84-3.26s5.74,.94,7.64,2.83c1.9,1.89,2.84,4.89,2.84,9.03s-1.01,7.26-3.03,9.38c-2.02,2.12-4.72,3.17-8.1,3.17-2.92,0-5.31-.84-7.17-2.52-.97-.87-1.72-2.09-2.26-3.64-.54-1.55-.81-3.37-.81-5.46Zm10.79-12.44c-2.32,0-4.22,1.03-5.7,3.1-1.48,2.07-2.22,5.1-2.22,9.1s.7,6.92,2.1,8.76,3.27,2.76,5.6,2.76,4.24-1.04,5.72-3.12c1.48-2.08,2.22-5.1,2.22-9.07s-.71-6.88-2.12-8.74c-1.41-1.86-3.28-2.79-5.6-2.79Z"/>
          <path class="cls-2" d="M227.04,62.32h.45v13.79c0,3.61-.71,6.26-2.14,7.95-1.42,1.69-3.29,2.53-5.58,2.53-1.45,0-2.68-.13-3.69-.4-1.01-.26-1.96-.75-2.86-1.46-1.84-1.42-2.76-4.3-2.76-8.62v-13.79h2.86v13.75c0,4.18,.63,6.98,1.9,8.38,.64,.69,1.32,1.16,2.02,1.41,.7,.25,1.55,.38,2.53,.38,2.21,0,3.97-.81,5.29-2.43,1.32-1.62,1.98-4.2,1.98-7.74v-13.75Z"/>
          <path class="cls-2" d="M238.69,62.6c2.67-.18,5.02-.28,7.07-.28,5.68,0,8.51,1.9,8.51,5.69,0,1.42-.41,2.65-1.24,3.67-.83,1.02-2.15,1.72-3.96,2.09,1.75,.21,3.13,.74,4.14,1.59,1.01,.85,1.52,2.33,1.52,4.45,0,4.44-2.84,6.65-8.51,6.65h-7.52v-23.85Zm7.07,.07c-1.33,0-2.74,.08-4.21,.24v10.76h5.1c3.24-.14,4.86-2,4.86-5.58,0-1.75-.48-3.09-1.45-4.02-.96-.93-2.4-1.4-4.31-1.4Zm-4.21,23.44h4.65c2.04,0,3.5-.53,4.36-1.6,.86-1.07,1.29-2.71,1.29-4.91s-.44-3.68-1.31-4.41-2.17-1.13-3.9-1.17h-5.1v12.1Z"/>
          <path class="cls-2" d="M267.41,86.45h-2.86v-24.13h2.86v11.1h11.2v-11.1h2.86v24.13h-2.86v-12.69h-11.2v12.69Z"/>
          <path class="cls-2" d="M291.19,86.45h-.41l10.31-24.13,.38-.17,8.69,24.3h-2.93l-2.69-7.58h-10.07l-3.27,7.58Zm8.82-20.41l-5.41,12.48h9.82l-4.41-12.48Z"/>
          <path class="cls-2" d="M331.15,86.59c-4.3,0-7.48-1.22-9.55-3.65-.74-.87-1.33-2.03-1.79-3.48-.46-1.45-.69-3.21-.69-5.27s.34-3.92,1.02-5.57c.68-1.64,1.6-2.91,2.77-3.81,2.28-1.68,5.02-2.52,8.24-2.52,1.03,0,2.05,.08,3.03,.22,.99,.15,1.72,.31,2.21,.47l.72,.24-.1,.34c-1.79-.62-3.75-.93-5.86-.93-2.44,0-4.47,.79-6.1,2.38-1.24,1.17-2.12,2.9-2.62,5.17-.3,1.29-.45,2.86-.45,4.72s.26,3.58,.79,5.15c.53,1.57,1.13,2.74,1.81,3.5,.68,.76,1.5,1.36,2.47,1.81,.96,.45,1.73,.71,2.31,.78,.57,.07,1.26,.1,2.05,.1s1.86-.09,3.19-.28v-7.1h-4.17v-.34h8.51v.34h-1.48v6.79c-1.75,.62-3.85,.93-6.31,.93Z"/>
          <path class="cls-2" d="M361.96,62.32c.44,.44,.65,1,.65,1.69,0,.57-.13,1.16-.38,1.76l-6.17,12.51v8.17h-2.86v-7.41l-6.89-16.72h2.93l6.58,15.55,6-12.1c.25-.57,.38-1.17,.38-1.79s-.17-1.1-.52-1.45l.28-.21Z"/>
          <path class="cls-2" d="M368.89,86.45h-.41l10.31-24.13,.38-.17,8.69,24.3h-2.93l-2.69-7.58h-10.07l-3.27,7.58Zm8.82-20.41l-5.41,12.48h9.82l-4.41-12.48Z"/>
        </g>
        <g>
          <path class="cls-1" d="M159.88,1.57V27.95L178.8,1.57h4.82l-15.71,21.77c2.82,.97,5.13,2.65,6.9,5.04,1.78,2.39,3.23,5.16,4.35,8.33l4.75,13.44h-4.82l-4.24-12.06c-.97-2.78-2.24-5.2-3.8-7.27-1.56-2.07-3.39-3.4-5.48-3.98l-5.7,7.31v16h-4.38V1.57h4.38Z"/>
          <path class="cls-1" d="M195.02,50.16h-4.38V18.6c0-2.53,.24-4.89,.73-7.09,.49-2.19,1.3-4.07,2.45-5.63,1.14-1.56,2.64-2.79,4.49-3.69,1.85-.9,4.14-1.35,6.87-1.35s5.09,.45,6.94,1.35c1.85,.9,3.35,2.13,4.49,3.69,1.14,1.56,1.95,3.43,2.41,5.63,.46,2.19,.69,4.55,.69,7.09v31.56h-4.38V30.87h-20.31v19.29Zm20.31-23.16v-8.33c0-1.95-.15-3.77-.44-5.48-.29-1.7-.82-3.18-1.57-4.42-.76-1.24-1.79-2.23-3.1-2.96-1.32-.73-3-1.1-5.04-1.1s-3.73,.37-5.04,1.1c-1.32,.73-2.35,1.72-3.1,2.96-.76,1.24-1.28,2.72-1.57,4.42-.29,1.71-.44,3.53-.44,5.48v8.33h20.31Z"/>
          <path class="cls-1" d="M236.74,1.57l23.31,30.47V1.57h4.24V50.16h-4.24v-11.69l-22.87-29.81V50.16h-4.24V1.57h3.8Z"/>
          <path class="cls-1" d="M281.89,50.16h-4.38V18.6c0-2.53,.24-4.89,.73-7.09,.49-2.19,1.3-4.07,2.45-5.63,1.14-1.56,2.64-2.79,4.49-3.69,1.85-.9,4.14-1.35,6.87-1.35s5.09,.45,6.94,1.35c1.85,.9,3.35,2.13,4.49,3.69,1.14,1.56,1.95,3.43,2.41,5.63,.46,2.19,.69,4.55,.69,7.09v31.56h-4.38V30.87h-20.31v19.29Zm20.31-23.16v-8.33c0-1.95-.15-3.77-.44-5.48-.29-1.7-.82-3.18-1.57-4.42-.76-1.24-1.79-2.23-3.1-2.96-1.32-.73-3-1.1-5.04-1.1s-3.73,.37-5.04,1.1c-1.32,.73-2.35,1.72-3.1,2.96-.76,1.24-1.28,2.72-1.57,4.42-.29,1.71-.44,3.53-.44,5.48v8.33h20.31Z"/>
          <path class="cls-1" d="M324.19,1.57V27.95L343.11,1.57h4.82l-15.71,21.77c2.82,.97,5.13,2.65,6.9,5.04,1.78,2.39,3.23,5.16,4.35,8.33l4.75,13.44h-4.82l-4.24-12.06c-.97-2.78-2.24-5.2-3.8-7.27-1.56-2.07-3.39-3.4-5.48-3.98l-5.7,7.31v16h-4.38V1.57h4.38Z"/>
          <path class="cls-1" d="M359.33,50.16h-4.38V18.6c0-2.53,.24-4.89,.73-7.09,.49-2.19,1.3-4.07,2.45-5.63,1.14-1.56,2.64-2.79,4.49-3.69,1.85-.9,4.14-1.35,6.87-1.35s5.09,.45,6.94,1.35c1.85,.9,3.35,2.13,4.49,3.69,1.14,1.56,1.95,3.43,2.41,5.63,.46,2.19,.69,4.55,.69,7.09v31.56h-4.38V30.87h-20.31v19.29Zm20.31-23.16v-8.33c0-1.95-.15-3.77-.44-5.48-.29-1.7-.82-3.18-1.57-4.42-.76-1.24-1.79-2.23-3.1-2.96-1.32-.73-3-1.1-5.04-1.1s-3.73,.37-5.04,1.1c-1.32,.73-2.35,1.72-3.1,2.96-.76,1.24-1.28,2.72-1.57,4.42-.29,1.71-.44,3.53-.44,5.48v8.33h20.31Z"/>
        </g>
      </g>
    </g>
  </g>
</svg>