<?xml version="1.0" encoding="UTF-8"?>
<svg id="Layer_2" data-name="Layer 2" xmlns="http://www.w3.org/2000/svg" viewBox="0 0 344.31 339.25">
  <defs>
    <style>
      .cls-1 {
        fill: #212121;
      }

      .cls-2 {
        fill: #cea665;
      }
    </style>
  </defs>
  <g id="Layer_1-2" data-name="Layer 1">
    <g>
      <g>
        <g>
          <path class="cls-2" d="M.15,188.45c-.25-2.15-.19-4.04,.17-5.67,.36-1.63,.93-2.98,1.72-4.05,.79-1.07,1.68-1.9,2.68-2.49,1-.59,2.06-.95,3.18-1.08,.99-.11,1.85-.04,2.58,.22,.73,.26,1.32,.69,1.75,1.3,.43,.61,.7,1.36,.8,2.26-2.73,.31-5.05,.89-6.96,1.72-1.9,.83-3.3,1.96-4.18,3.37-.88,1.42-1.2,3.16-.97,5.22,.29,2.55,1.33,4.47,3.11,5.74,1.78,1.27,4.29,1.72,7.51,1.35,2.24-.26,4.01-.85,5.32-1.77,1.3-.92,2.38-2.18,3.25-3.78,.86-1.6,1.75-3.58,2.66-5.96,.68-1.62,1.4-3.12,2.17-4.51,.77-1.38,1.66-2.59,2.65-3.61,1-1.02,2.15-1.86,3.46-2.51,1.31-.65,2.84-1.07,4.59-1.27,2.69-.31,5.02-.04,7.01,.8,1.98,.84,3.57,2.16,4.78,3.95,1.2,1.79,1.95,3.97,2.25,6.52,.27,2.38,.12,4.42-.45,6.15-.58,1.72-1.41,3.09-2.49,4.1-1.09,1.01-2.3,1.59-3.65,1.75-1.21,.14-2.21-.15-2.99-.85-.79-.7-1.27-1.84-1.45-3.41,3.72-.43,6.43-1.31,8.15-2.64,1.71-1.33,2.43-3.19,2.16-5.56-.17-1.48-.67-2.74-1.49-3.78-.82-1.04-1.94-1.79-3.36-2.24-1.41-.45-3.15-.56-5.21-.32-2.2,.25-3.92,.82-5.19,1.72-1.26,.89-2.29,2.11-3.09,3.66-.8,1.54-1.66,3.44-2.58,5.68-.89,2.19-1.82,4.16-2.8,5.91-.98,1.75-2.25,3.19-3.8,4.32-1.55,1.13-3.67,1.85-6.36,2.16-2.73,.31-5.16,.05-7.28-.8-2.12-.85-3.83-2.23-5.14-4.15-1.31-1.92-2.14-4.4-2.49-7.45Z"/>
          <path class="cls-2" d="M13.17,239.07l.58-.34,1,1.69c.44,.74,.92,1.27,1.45,1.58,.53,.32,1.22,.45,2.09,.41,.87-.04,2.02-.25,3.47-.64l42.61-11.05,2.1,3.55-31.12,34.45c-.6,.67-1.02,1.26-1.27,1.77-.25,.51-.35,1.01-.3,1.48,.04,.47,.25,1.02,.62,1.64l.28,.47-.58,.34-8.17-13.8,.58-.34,.93,1.57c.71,1.2,1.35,1.94,1.9,2.22,.55,.27,1.14,.23,1.76-.14,.31-.18,.62-.42,.92-.7s.61-.6,.93-.95c.32-.35,.66-.7,1.02-1.07l7.82-8.32-7.99-13.51-10.1,2.6c-.6,.14-1.17,.3-1.73,.47-.55,.17-1.06,.34-1.51,.5-.45,.16-.84,.34-1.15,.52-.74,.44-1.1,1.02-1.09,1.75,.01,.73,.4,1.73,1.15,3.01l1.28,2.16-.58,.34-6.89-11.65Zm21.31,.13l7.79,13.16,11.46-12.13c1.45-1.54,2.66-2.82,3.63-3.84,.97-1.02,1.79-1.87,2.46-2.56,.67-.68,1.26-1.31,1.76-1.87-.87,.3-1.64,.55-2.31,.74-.67,.19-1.34,.37-1.99,.55-.66,.18-1.34,.35-2.06,.51-.72,.16-1.57,.38-2.56,.65l-18.17,4.77Z"/>
          <path class="cls-2" d="M64.31,303.88l.39-.55,1.43,1.02c.92,.66,1.72,1.05,2.4,1.18,.68,.13,1.36-.04,2.02-.51,.67-.47,1.39-1.25,2.18-2.35l9.25-12.94,4.35-24.59c.19-.97,.26-1.77,.21-2.39-.06-.62-.21-1.13-.45-1.53-.24-.4-.64-.79-1.19-1.18l-.61-.43,.39-.55,13.22,9.44-.39,.55-1.32-.94c-1.07-.76-1.86-1.18-2.39-1.25-.53-.07-.96,.13-1.31,.61-.26,.37-.46,.82-.6,1.36-.14,.54-.32,1.28-.55,2.23l-2.59,13.29c-.14,.73-.28,1.45-.42,2.16-.14,.7-.27,1.4-.38,2.1-.11,.7-.24,1.38-.39,2.05-.15,.67-.29,1.34-.44,2.01,.74-.41,1.7-.96,2.88-1.64,1.18-.68,2.38-1.37,3.59-2.05l12.16-7.12c1.01-.56,1.74-1.02,2.2-1.38,.46-.37,.8-.72,1.04-1.05,.37-.51,.45-1.01,.24-1.49-.21-.48-.81-1.08-1.8-1.79l-2.7-1.93,.39-.55,9.97,7.12-.39,.55-.77-.55c-.59-.42-1.12-.69-1.59-.8-.47-.12-1.02-.08-1.66,.11-.63,.19-1.43,.57-2.4,1.15l-21.17,12.16-9.25,12.94c-.79,1.1-1.3,2.04-1.55,2.8-.24,.77-.21,1.44,.09,2.02s.9,1.18,1.78,1.81l1.6,1.14-.39,.55-15.09-10.78Z"/>
          <path class="cls-2" d="M139.91,338.9c-4.04-.75-7.21-2.39-9.52-4.92-2.31-2.54-3.79-5.77-4.44-9.7-.65-3.93-.52-8.36,.39-13.28,.93-5.06,2.4-9.28,4.41-12.67,2-3.39,4.54-5.81,7.61-7.27,3.07-1.45,6.62-1.81,10.66-1.06,3.95,.73,7.08,2.3,9.39,4.69,2.31,2.4,3.82,5.55,4.52,9.44,.7,3.89,.58,8.43-.38,13.62-.93,5.01-2.43,9.22-4.5,12.62-2.07,3.4-4.65,5.85-7.72,7.35-3.08,1.5-6.54,1.89-10.4,1.17Zm.12-.67c2,.37,3.82,.24,5.48-.4,1.65-.63,3.13-1.83,4.41-3.59,1.29-1.76,2.43-4.1,3.43-7.04,1-2.93,1.89-6.49,2.66-10.66,.78-4.21,1.23-7.86,1.37-10.93,.13-3.07-.07-5.64-.6-7.72-.53-2.07-1.46-3.7-2.78-4.88-1.32-1.18-3.02-1.97-5.1-2.35-2.04-.38-3.89-.25-5.54,.39-1.65,.64-3.13,1.82-4.44,3.55-1.31,1.73-2.46,4.05-3.46,6.97-1,2.91-1.89,6.48-2.66,10.69-.76,4.13-1.19,7.74-1.28,10.84-.09,3.1,.16,5.71,.76,7.81,.6,2.11,1.53,3.76,2.8,4.96,1.27,1.2,2.92,1.99,4.97,2.36Z"/>
          <path class="cls-2" d="M220.53,334.7c-3.94,1.17-7.51,1.15-10.71-.07-3.21-1.21-5.99-3.42-8.36-6.63-2.36-3.2-4.26-7.21-5.68-12.01-1.46-4.93-2.07-9.36-1.83-13.29,.25-3.93,1.4-7.24,3.48-9.93,2.07-2.69,5.08-4.61,9.02-5.78,3.85-1.14,7.35-1.17,10.5-.08,3.15,1.09,5.92,3.21,8.31,6.36,2.39,3.15,4.34,7.25,5.84,12.32,1.45,4.89,2.02,9.32,1.72,13.29-.3,3.97-1.49,7.32-3.55,10.05-2.06,2.73-4.97,4.65-8.74,5.77Zm-.19-.65c1.95-.58,3.51-1.52,4.7-2.84,1.19-1.32,1.95-3.05,2.3-5.2,.35-2.15,.3-4.76-.14-7.83-.44-3.07-1.26-6.64-2.47-10.7-1.22-4.11-2.47-7.56-3.74-10.36-1.28-2.8-2.62-5-4.04-6.6-1.42-1.6-2.98-2.63-4.69-3.09-1.71-.46-3.59-.38-5.62,.22-1.99,.59-3.58,1.54-4.76,2.86-1.19,1.32-1.97,3.04-2.35,5.18-.38,2.14-.35,4.73,.08,7.78,.43,3.05,1.26,6.63,2.48,10.74,1.19,4.02,2.45,7.44,3.78,10.24,1.33,2.81,2.73,5.01,4.22,6.62,1.49,1.61,3.07,2.65,4.74,3.15s3.51,.44,5.5-.15Z"/>
          <path class="cls-2" d="M281.64,322.09l-.43-.52,.52-.43c1.36-1.11,2.21-2.36,2.54-3.74,.33-1.38,.11-3-.66-4.88s-2.16-4.03-4.16-6.48l-28.61-35c-.8-.98-1.52-1.67-2.17-2.07-.65-.4-1.27-.54-1.86-.4-.59,.13-1.27,.51-2.04,1.14l-1.31,1.07-.43-.52,13.41-10.96,.43,.52-1.31,1.07c-.77,.63-1.28,1.24-1.53,1.82-.25,.58-.24,1.23,.05,1.93,.28,.7,.84,1.56,1.66,2.57l27.37,33.48c1.91,2.34,3.23,4.51,3.96,6.51,.73,2,.99,3.84,.79,5.51-.2,1.68-.77,3.23-1.7,4.66-.93,1.43-2.11,2.73-3.54,3.9l-1,.81Z"/>
          <path class="cls-2" d="M316.45,261.87l-.59-.33,.87-1.53c.55-.98,.86-1.82,.92-2.51,.06-.69-.18-1.35-.72-1.96-.53-.61-1.39-1.25-2.57-1.92l-13.84-7.83-24.91-1.74c-.98-.09-1.78-.08-2.4,.04s-1.1,.32-1.47,.61c-.37,.29-.72,.72-1.05,1.31l-.37,.65-.59-.33,8-14.13,.59,.33-.8,1.41c-.64,1.14-.97,1.98-.99,2.51-.02,.53,.23,.95,.74,1.24,.39,.22,.87,.37,1.42,.45s1.31,.18,2.27,.31l13.49,1.18c.74,.06,1.47,.12,2.19,.19,.71,.07,1.42,.12,2.13,.16,.71,.04,1.4,.09,2.08,.17,.68,.08,1.37,.15,2.05,.23-.49-.69-1.14-1.59-1.94-2.69-.8-1.1-1.61-2.22-2.42-3.35l-8.36-11.34c-.66-.94-1.19-1.62-1.61-2.04-.41-.41-.8-.72-1.15-.92-.55-.31-1.05-.34-1.51-.08-.46,.26-.99,.92-1.59,1.98l-1.63,2.89-.59-.33,6.03-10.66,.59,.33-.47,.82c-.36,.63-.57,1.18-.63,1.66-.07,.48,.03,1.03,.28,1.64,.25,.61,.72,1.37,1.4,2.27l14.32,19.77,13.84,7.83c1.18,.67,2.16,1.08,2.95,1.24,.79,.16,1.46,.06,2-.31,.54-.36,1.08-1.02,1.62-1.96l.97-1.71,.59,.33-9.14,16.14Z"/>
          <path class="cls-2" d="M340.44,206.22l-.67-.06,.18-1.95c.08-.85,0-1.56-.24-2.13-.24-.57-.72-1.09-1.45-1.56-.72-.48-1.79-.98-3.19-1.53l-40.96-16.11,.39-4.11,45.43-9.57c.88-.19,1.57-.42,2.07-.69,.5-.27,.87-.61,1.12-1.02,.24-.41,.4-.97,.47-1.69l.05-.54,.67,.06-1.51,15.97-.67-.06,.17-1.82c.13-1.39,.05-2.36-.23-2.91-.29-.55-.79-.86-1.51-.92-.36-.03-.75-.02-1.16,.03-.41,.05-.85,.12-1.31,.22s-.95,.18-1.45,.27l-11.21,2.13-1.48,15.63,9.7,3.84c.57,.24,1.13,.45,1.67,.63s1.05,.35,1.52,.48c.46,.14,.88,.22,1.23,.25,.85,.08,1.49-.18,1.91-.77,.42-.59,.7-1.63,.84-3.12l.24-2.49,.67,.06-1.27,13.47Zm-17.16-12.64l1.44-15.23-16.4,3.07c-2.08,.39-3.81,.72-5.19,.97-1.38,.26-2.55,.46-3.49,.62-.94,.16-1.79,.32-2.53,.47,.88,.26,1.65,.52,2.31,.76,.66,.24,1.3,.49,1.94,.73,.63,.24,1.29,.51,1.96,.8,.68,.29,1.5,.62,2.46,.98l17.5,6.82Z"/>
        </g>
        <g>
          <path class="cls-1" d="M18.15,100.63c-.37,.49-.74,1.05-1.12,1.67-.38,.62-.75,1.26-1.11,1.91-.36,.65-.69,1.29-.98,1.93-.29,.63-.53,1.21-.73,1.72-.36,.95-.66,1.86-.89,2.74-.23,.89-.29,1.71-.2,2.47,.09,.76,.39,1.45,.9,2.07,.51,.63,1.31,1.15,2.41,1.57,1.26,.49,2.64,.55,4.13,.2,1.49-.35,3.05-.9,4.66-1.63,1.62-.73,3.31-1.58,5.08-2.52,1.77-.95,3.54-1.76,5.31-2.43,1.77-.67,3.55-1.13,5.34-1.37,1.79-.24,3.53-.03,5.22,.62,1.69,.65,3.01,1.45,3.96,2.4,.95,.95,1.58,2.02,1.92,3.21,.33,1.19,.41,2.46,.23,3.82s-.55,2.74-1.09,4.16c-.74,1.93-1.69,3.72-2.83,5.39-1.15,1.66-2.24,2.99-3.27,4l-2.86-1.78c1.02-1.01,2.09-2.3,3.19-3.89,1.11-1.58,2-3.26,2.69-5.04,.73-1.89,.93-3.58,.59-5.06-.33-1.48-1.48-2.6-3.45-3.36-1.45-.56-3-.69-4.62-.39-1.63,.3-3.3,.81-5.02,1.53-1.72,.72-3.46,1.55-5.23,2.5-1.76,.95-3.52,1.78-5.26,2.49-1.74,.71-3.43,1.21-5.08,1.5-1.65,.29-3.24,.14-4.77-.45-1.61-.62-2.84-1.43-3.7-2.44-.85-1.01-1.41-2.12-1.66-3.35-.25-1.23-.26-2.53-.02-3.91,.24-1.38,.62-2.76,1.15-4.14,.53-1.38,1.18-2.78,1.96-4.2,.77-1.42,1.49-2.59,2.16-3.51l2.99,1.56Z"/>
          <path class="cls-1" d="M92.23,66.66l-25.51-15.45,12.34,27.12-3.32,2.94-34.63-25.56,2.89-2.56,30.72,23.44-12.75-27.77,3.03-2.69,26.12,15.85c-1.35-2.8-2.8-5.66-4.34-8.58-1.54-2.92-3.14-5.8-4.79-8.65-1.65-2.85-3.32-5.66-5-8.42-1.68-2.76-3.36-5.41-5.03-7.93l2.51-2.22c2,2.96,4.01,6.07,6.02,9.33,2.01,3.26,3.94,6.55,5.77,9.86,1.83,3.31,3.53,6.55,5.08,9.7,1.56,3.16,2.89,6.1,4.01,8.83l-3.13,2.77Z"/>
          <path class="cls-1" d="M134.22,45.08l-3.7,.84-6.03-26.67c-.48-2.14-.73-4.18-.74-6.13,0-1.94,.32-3.68,.99-5.22,.67-1.54,1.7-2.86,3.09-3.98,1.39-1.11,3.24-1.93,5.54-2.45,2.35-.53,4.39-.59,6.12-.18,1.74,.41,3.24,1.16,4.5,2.26,1.26,1.1,2.3,2.53,3.11,4.29,.81,1.76,1.46,3.72,1.94,5.86l6.03,26.67-3.7,.84-3.68-16.3-17.16,3.88,3.68,16.3Zm12.74-23.45l-1.59-7.04c-.37-1.65-.84-3.16-1.42-4.55-.57-1.38-1.3-2.53-2.17-3.44-.88-.91-1.94-1.54-3.19-1.91-1.25-.37-2.74-.35-4.47,.04-1.73,.39-3.08,1.02-4.05,1.89-.97,.87-1.66,1.9-2.06,3.09-.4,1.19-.56,2.54-.48,4.03,.08,1.5,.3,3.07,.68,4.71l1.59,7.04,17.16-3.88Z"/>
          <path class="cls-1" d="M211.2,2.5c1.97,.47,3.68,1.08,5.13,1.84,1.45,.76,2.57,1.73,3.37,2.91,.8,1.19,1.28,2.63,1.44,4.34,.16,1.71-.05,3.75-.61,6.13-.79,3.32-2.02,5.72-3.69,7.18-1.67,1.47-3.71,2.35-6.13,2.64,.95,1.1,1.61,2.28,1.98,3.57,.37,1.28,.63,2.85,.8,4.72l.9,10.7-3.88-.92-.85-9.83c-.09-1.1-.22-2.13-.4-3.09-.19-.95-.45-1.8-.8-2.53s-.8-1.34-1.36-1.82c-.56-.48-1.27-.82-2.13-1.03-1.03-.24-2.06-.55-3.1-.93-1.04-.38-2.13-.81-3.27-1.3l-3.98,16.75-3.69-.88L200.67,0l10.53,2.5Zm-11.81,19.31c1.13,.53,2.23,.97,3.29,1.33,1.06,.36,2.11,.66,3.13,.91,3.24,.77,5.68,.55,7.31-.66,1.63-1.21,2.83-3.41,3.59-6.6,.42-1.76,.6-3.26,.55-4.51-.05-1.24-.33-2.28-.85-3.12-.52-.84-1.27-1.52-2.27-2.06-1-.54-2.24-.99-3.72-1.34l-6.84-1.63-4.2,17.68Z"/>
          <path class="cls-1" d="M274.74,32.04l-1.72,33.19,17.1-20.11,2.8,2.38-27.27,32.06-2.8-2.38,6.56-7.71,1.64-32.51-23.29,27.39-2.8-2.38,27.27-32.06,2.51,2.13Z"/>
          <path class="cls-1" d="M287.91,112.07l-1.45-3.51,25.29-10.4c2.03-.84,4-1.42,5.92-1.75,1.92-.33,3.69-.3,5.31,.11,1.63,.4,3.1,1.2,4.44,2.38,1.33,1.19,2.45,2.87,3.35,5.06,.91,2.22,1.32,4.23,1.2,6.01-.11,1.78-.6,3.39-1.47,4.82-.87,1.43-2.11,2.69-3.71,3.79-1.6,1.09-3.42,2.06-5.45,2.89l-25.29,10.4-1.44-3.51,15.45-6.36-6.69-16.27-15.45,6.36Zm25.25,8.64l6.67-2.74c1.56-.64,2.98-1.36,4.25-2.16,1.27-.8,2.28-1.7,3.02-2.72,.75-1.01,1.2-2.17,1.35-3.46,.15-1.29-.11-2.76-.78-4.4-.67-1.64-1.52-2.86-2.54-3.68-1.02-.81-2.15-1.32-3.39-1.51-1.25-.2-2.6-.13-4.06,.2-1.46,.33-2.97,.81-4.53,1.46l-6.67,2.74,6.69,16.27Z"/>
        </g>
      </g>
      <g>
        <path class="cls-2" d="M201.37,75.85c1.3,.4,2.57,.84,3.84,1.3-1.2,.31-2.41,.6-3.63,.88-9.69,2.21-19.76,3.37-30.11,3.37s-20.44-1.17-30.14-3.38c-1.21-.28-2.42-.58-3.63-.88,1.27-.46,2.54-.9,3.83-1.3,1.36,.32,2.73,.61,4.12,.88,8.36,1.65,16.99,2.51,25.83,2.51s17.43-.86,25.78-2.5c1.38-.27,2.75-.57,4.12-.88Z"/>
        <path class="cls-2" d="M221.28,84.7c.78,.45,1.55,.92,2.32,1.4-.76,.33-1.53,.64-2.3,.95-15.43,6.12-32.25,9.49-49.83,9.49s-34.44-3.38-49.89-9.51c-.77-.32-1.53-.62-2.3-.95,.77-.48,1.54-.95,2.33-1.39,.8,.33,1.59,.64,2.4,.94,14.76,5.64,30.75,8.73,47.46,8.73s32.69-3.08,47.42-8.71c.81-.31,1.6-.62,2.39-.95Z"/>
        <path class="cls-2" d="M234.27,93.76c.6,.49,1.2,1,1.79,1.51-.63,.35-1.27,.69-1.91,1.03-18.76,9.82-40.08,15.39-62.69,15.39s-43.98-5.57-62.74-15.42c-.63-.34-1.27-.67-1.9-1.02,.59-.52,1.19-1.02,1.78-1.52,.64,.36,1.29,.69,1.93,1.03,18.28,9.42,38.99,14.75,60.93,14.75s42.62-5.32,60.87-14.73c.64-.34,1.29-.67,1.93-1.02Z"/>
        <path class="cls-2" d="M244.13,103.05c.51,.54,1.01,1.08,1.48,1.63-.57,.37-1.13,.74-1.71,1.1-20.96,13.31-45.81,21.02-72.42,21.02s-51.51-7.72-72.48-21.06c-.57-.36-1.13-.73-1.7-1.09,.48-.55,.97-1.09,1.47-1.63,.57,.37,1.14,.74,1.72,1.1,20.57,12.99,44.92,20.51,70.99,20.51s50.38-7.51,70.94-20.48c.58-.36,1.15-.73,1.72-1.1Z"/>
        <path class="cls-2" d="M251.97,112.65c.42,.59,.84,1.19,1.26,1.79-.54,.4-1.07,.8-1.61,1.2-22.46,16.53-50.19,26.31-80.15,26.31s-57.72-9.79-80.18-26.33c-.55-.4-1.08-.81-1.61-1.21,.4-.6,.83-1.2,1.25-1.79,.54,.41,1.07,.82,1.61,1.22,22.1,16.29,49.41,25.93,78.93,25.93s56.79-9.63,78.89-25.91c.54-.4,1.07-.8,1.61-1.21Z"/>
        <path class="cls-2" d="M258.3,122.67c.36,.65,.72,1.31,1.06,1.97-.52,.44-1.05,.88-1.57,1.31-23.46,19.44-53.53,31.13-86.31,31.13s-62.88-11.69-86.34-31.15c-.53-.43-1.06-.88-1.58-1.32,.35-.66,.7-1.31,1.06-1.96,.52,.45,1.05,.89,1.57,1.32,23.13,19.3,52.87,30.93,85.29,30.93s62.14-11.63,85.27-30.92c.52-.43,1.04-.87,1.55-1.31Z"/>
        <path class="cls-2" d="M263.33,133.26c.3,.72,.59,1.45,.85,2.19-.53,.5-1.06,.99-1.59,1.48-24.08,21.91-56.07,35.3-91.12,35.3s-67.07-13.39-91.15-35.32c-.54-.49-1.06-.98-1.59-1.48,.28-.73,.56-1.46,.85-2.18,.52,.5,1.05,.99,1.58,1.48,23.76,21.92,55.49,35.33,90.31,35.33s66.52-13.4,90.29-35.32c.53-.48,1.06-.98,1.57-1.47Z"/>
        <path class="cls-2" d="M267.14,144.61c.22,.82,.43,1.64,.62,2.48-.56,.56-1.1,1.11-1.67,1.66-24.45,23.87-57.84,38.61-94.62,38.61s-70.21-14.74-94.64-38.62c-.57-.55-1.12-1.09-1.67-1.65,.19-.83,.4-1.66,.63-2.48,.53,.56,1.07,1.11,1.63,1.67,24.12,24.03,57.38,38.91,94.05,38.91s69.91-14.88,94.03-38.9c.56-.56,1.1-1.11,1.64-1.67Z"/>
        <path class="cls-2" d="M269.64,157.11c.13,.94,.25,1.88,.35,2.83-.6,.65-1.23,1.29-1.85,1.92-24.6,25.07-58.85,40.64-96.66,40.64s-72.07-15.58-96.68-40.65c-.62-.63-1.24-1.27-1.84-1.92,.1-.95,.21-1.9,.34-2.84,.59,.65,1.18,1.29,1.79,1.92,24.29,25.44,58.52,41.31,96.39,41.31s72.09-15.87,96.38-41.3c.59-.62,1.2-1.27,1.78-1.91Z"/>
        <path class="cls-2" d="M268.45,173.52c.69-.73,1.38-1.48,2.06-2.23,0,1.1-.04,2.21-.09,3.3-.7,.76-1.41,1.51-2.14,2.24-24.62,25.16-58.93,40.79-96.81,40.79s-72.21-15.64-96.82-40.8c-.73-.73-1.44-1.48-2.14-2.24-.05-1.09-.08-2.2-.09-3.3,.68,.76,1.36,1.5,2.06,2.24,24.32,25.81,58.81,41.93,96.98,41.93s72.65-16.13,96.97-41.93Z"/>
        <path class="cls-2" d="M266.32,190.87c.87-.88,1.74-1.77,2.59-2.69-.24,1.33-.51,2.67-.82,3.98-.89,.91-1.8,1.81-2.72,2.71-24.38,23.46-57.48,37.9-93.9,37.9s-69.54-14.45-93.9-37.92c-.93-.88-1.84-1.78-2.73-2.7-.3-1.31-.57-2.65-.81-3.98,.84,.91,1.72,1.81,2.59,2.7,24.19,24.51,57.77,39.73,94.85,39.73s70.66-15.22,94.85-39.73Z"/>
        <path class="cls-2" d="M258.48,213.34c1.3-1.11,2.57-2.26,3.82-3.42-.75,1.71-1.53,3.4-2.39,5.06-1.35,1.18-2.72,2.32-4.13,3.43-23.16,18.46-52.47,29.5-84.31,29.5s-61.13-11.03-84.27-29.47c-1.4-1.11-2.77-2.25-4.13-3.42-.06-.09-.1-.18-.14-.27-.79-1.55-1.54-3.15-2.24-4.78,1.25,1.16,2.51,2.3,3.8,3.42,23.36,20.15,53.77,32.35,86.98,32.35s63.64-12.21,87.01-32.39Z"/>
        <path class="cls-2" d="M231.59,246.52c2.87-1.46,5.68-3.01,8.42-4.67-2.53,2.44-5.2,4.74-7.98,6.89-3.38,1.69-6.83,3.24-10.36,4.65-15.52,6.22-32.47,9.64-50.2,9.64s-34.48-3.39-49.95-9.54c-3.53-1.4-6.98-2.95-10.36-4.63-2.7-2.06-5.28-4.27-7.71-6.58-.11-.1-.21-.2-.32-.3,2.75,1.65,5.56,3.2,8.44,4.65,18.02,9.1,38.37,14.23,59.89,14.23s42.04-5.17,60.12-14.34Z"/>
      </g>
    </g>
  </g>
</svg>